<mxfile host="app.diagrams.net" modified="2022-08-17T14:53:07.102Z" agent="5.0 (Windows NT 10.0; Win64; x64) AppleWebKit/537.36 (KHTML, like Gecko) Chrome/101.0.0.0 Safari/537.36" etag="Z4OmGmfYfUg3p32Ni5vd" version="17.4.1" type="github">
  <diagram id="3DUMcZw8mwYkqUCoV2zm" name="第 1 页">
    <mxGraphModel dx="1038" dy="556" grid="1" gridSize="10" guides="1" tooltips="1" connect="1" arrows="1" fold="1" page="1" pageScale="1" pageWidth="827" pageHeight="1169" math="0" shadow="0">
      <root>
        <mxCell id="0" />
        <mxCell id="1" parent="0" />
        <mxCell id="_GSDlz-p9VPtujBZK2C7-16" value="ThreadLocalMap" style="shape=table;startSize=30;container=1;collapsible=0;childLayout=tableLayout;fixedRows=1;rowLines=0;fontStyle=1;" vertex="1" parent="1">
          <mxGeometry x="290" y="155" width="180" height="120" as="geometry" />
        </mxCell>
        <mxCell id="_GSDlz-p9VPtujBZK2C7-17" value="" style="shape=tableRow;horizontal=0;startSize=0;swimlaneHead=0;swimlaneBody=0;top=0;left=0;bottom=0;right=0;collapsible=0;dropTarget=0;fillColor=none;points=[[0,0.5],[1,0.5]];portConstraint=eastwest;" vertex="1" parent="_GSDlz-p9VPtujBZK2C7-16">
          <mxGeometry y="30" width="180" height="30" as="geometry" />
        </mxCell>
        <mxCell id="_GSDlz-p9VPtujBZK2C7-18" value="key1" style="shape=partialRectangle;html=1;whiteSpace=wrap;connectable=0;fillColor=#d5e8d4;top=0;left=0;bottom=0;right=0;overflow=hidden;pointerEvents=1;strokeColor=#82b366;points=[[0,0,0,0,0],[0,0.23,0,0,0],[0,0.5,0,0,0],[0,0.77,0,0,0],[0,1,0,0,0],[0.24,0,0,0,0],[0.24,1,0,0,0],[0.5,0,0,0,0],[0.5,1,0,0,0],[0.76,0,0,0,0],[0.76,1,0,0,0],[1,0,0,0,0],[1,0.27,0,0,0],[1,0.5,0,0,0],[1,0.77,0,0,0],[1,1,0,0,0]];" vertex="1" parent="_GSDlz-p9VPtujBZK2C7-17">
          <mxGeometry width="90" height="30" as="geometry">
            <mxRectangle width="90" height="30" as="alternateBounds" />
          </mxGeometry>
        </mxCell>
        <mxCell id="_GSDlz-p9VPtujBZK2C7-19" value="value1" style="shape=partialRectangle;html=1;whiteSpace=wrap;connectable=0;fillColor=#d5e8d4;top=0;left=0;bottom=0;right=0;align=left;spacingLeft=6;overflow=hidden;strokeColor=#82b366;" vertex="1" parent="_GSDlz-p9VPtujBZK2C7-17">
          <mxGeometry x="90" width="90" height="30" as="geometry">
            <mxRectangle width="90" height="30" as="alternateBounds" />
          </mxGeometry>
        </mxCell>
        <mxCell id="_GSDlz-p9VPtujBZK2C7-20" value="" style="shape=tableRow;horizontal=0;startSize=0;swimlaneHead=0;swimlaneBody=0;top=0;left=0;bottom=0;right=0;collapsible=0;dropTarget=0;fillColor=none;points=[[0,0.5],[1,0.5]];portConstraint=eastwest;" vertex="1" parent="_GSDlz-p9VPtujBZK2C7-16">
          <mxGeometry y="60" width="180" height="30" as="geometry" />
        </mxCell>
        <mxCell id="_GSDlz-p9VPtujBZK2C7-21" value="key2" style="shape=partialRectangle;html=1;whiteSpace=wrap;connectable=0;fillColor=none;top=0;left=0;bottom=0;right=0;overflow=hidden;" vertex="1" parent="_GSDlz-p9VPtujBZK2C7-20">
          <mxGeometry width="90" height="30" as="geometry">
            <mxRectangle width="90" height="30" as="alternateBounds" />
          </mxGeometry>
        </mxCell>
        <mxCell id="_GSDlz-p9VPtujBZK2C7-22" value="value 2" style="shape=partialRectangle;html=1;whiteSpace=wrap;connectable=0;fillColor=none;top=0;left=0;bottom=0;right=0;align=left;spacingLeft=6;overflow=hidden;" vertex="1" parent="_GSDlz-p9VPtujBZK2C7-20">
          <mxGeometry x="90" width="90" height="30" as="geometry">
            <mxRectangle width="90" height="30" as="alternateBounds" />
          </mxGeometry>
        </mxCell>
        <mxCell id="_GSDlz-p9VPtujBZK2C7-23" value="" style="shape=tableRow;horizontal=0;startSize=0;swimlaneHead=0;swimlaneBody=0;top=0;left=0;bottom=0;right=0;collapsible=0;dropTarget=0;fillColor=none;points=[[0,0.5],[1,0.5]];portConstraint=eastwest;" vertex="1" parent="_GSDlz-p9VPtujBZK2C7-16">
          <mxGeometry y="90" width="180" height="30" as="geometry" />
        </mxCell>
        <mxCell id="_GSDlz-p9VPtujBZK2C7-24" value="" style="shape=partialRectangle;html=1;whiteSpace=wrap;connectable=0;fillColor=#d5e8d4;top=0;left=0;bottom=0;right=0;overflow=hidden;strokeColor=#82b366;" vertex="1" parent="_GSDlz-p9VPtujBZK2C7-23">
          <mxGeometry width="90" height="30" as="geometry">
            <mxRectangle width="90" height="30" as="alternateBounds" />
          </mxGeometry>
        </mxCell>
        <mxCell id="_GSDlz-p9VPtujBZK2C7-25" value="" style="shape=partialRectangle;html=1;whiteSpace=wrap;connectable=0;fillColor=#d5e8d4;top=0;left=0;bottom=0;right=0;align=left;spacingLeft=6;overflow=hidden;strokeColor=#82b366;" vertex="1" parent="_GSDlz-p9VPtujBZK2C7-23">
          <mxGeometry x="90" width="90" height="30" as="geometry">
            <mxRectangle width="90" height="30" as="alternateBounds" />
          </mxGeometry>
        </mxCell>
        <mxCell id="_GSDlz-p9VPtujBZK2C7-26" value="ThreadLocal" style="rounded=1;whiteSpace=wrap;html=1;fillColor=#1ba1e2;strokeColor=#006EAF;fontColor=#ffffff;" vertex="1" parent="1">
          <mxGeometry x="260" y="70" width="110" height="40" as="geometry" />
        </mxCell>
        <mxCell id="_GSDlz-p9VPtujBZK2C7-27" value="" style="rounded=1;whiteSpace=wrap;html=1;fillColor=#1ba1e2;strokeColor=#006EAF;fontColor=#ffffff;" vertex="1" parent="1">
          <mxGeometry x="70" y="170" width="150" height="90" as="geometry" />
        </mxCell>
        <mxCell id="_GSDlz-p9VPtujBZK2C7-28" value="&lt;b&gt;&lt;font style=&quot;font-size: 18px&quot;&gt;Thread&lt;/font&gt;&lt;/b&gt;" style="text;html=1;strokeColor=none;fillColor=none;align=center;verticalAlign=middle;whiteSpace=wrap;rounded=0;" vertex="1" parent="1">
          <mxGeometry x="100" y="170" width="60" height="30" as="geometry" />
        </mxCell>
        <mxCell id="_GSDlz-p9VPtujBZK2C7-32" style="edgeStyle=none;rounded=0;orthogonalLoop=1;jettySize=auto;html=1;exitX=1;exitY=0.5;exitDx=0;exitDy=0;entryX=0;entryY=0.5;entryDx=0;entryDy=0;fontSize=14;fontColor=#000000;" edge="1" parent="1" source="_GSDlz-p9VPtujBZK2C7-29" target="_GSDlz-p9VPtujBZK2C7-26">
          <mxGeometry relative="1" as="geometry" />
        </mxCell>
        <mxCell id="_GSDlz-p9VPtujBZK2C7-29" value="&lt;font color=&quot;#ffffff&quot; style=&quot;font-size: 14px&quot;&gt;tl&lt;/font&gt;" style="rounded=0;whiteSpace=wrap;html=1;fillColor=#1A1A1A;" vertex="1" parent="1">
          <mxGeometry x="80" y="200" width="80" height="20" as="geometry" />
        </mxCell>
        <mxCell id="_GSDlz-p9VPtujBZK2C7-33" style="edgeStyle=none;rounded=0;orthogonalLoop=1;jettySize=auto;html=1;exitX=1;exitY=0.5;exitDx=0;exitDy=0;entryX=0;entryY=0.5;entryDx=0;entryDy=0;fontSize=14;fontColor=#000000;" edge="1" parent="1" source="_GSDlz-p9VPtujBZK2C7-30" target="_GSDlz-p9VPtujBZK2C7-20">
          <mxGeometry relative="1" as="geometry" />
        </mxCell>
        <mxCell id="_GSDlz-p9VPtujBZK2C7-30" value="&lt;font color=&quot;#ffffff&quot; style=&quot;font-size: 14px&quot;&gt;Map：threadLocals&lt;/font&gt;" style="rounded=0;whiteSpace=wrap;html=1;fillColor=#1A1A1A;" vertex="1" parent="1">
          <mxGeometry x="80" y="230" width="130" height="20" as="geometry" />
        </mxCell>
        <mxCell id="_GSDlz-p9VPtujBZK2C7-31" value="&lt;font style=&quot;font-size: 14px&quot;&gt;&lt;font color=&quot;#000000&quot;&gt;ThreadLocal tl.set()&lt;/font&gt;.&lt;/font&gt;" style="text;html=1;strokeColor=none;fillColor=none;align=center;verticalAlign=middle;whiteSpace=wrap;rounded=0;fontSize=18;fontColor=#FFFFFF;" vertex="1" parent="1">
          <mxGeometry x="60" y="120" width="190" height="30" as="geometry" />
        </mxCell>
        <mxCell id="_GSDlz-p9VPtujBZK2C7-35" style="edgeStyle=none;rounded=0;orthogonalLoop=1;jettySize=auto;html=1;entryX=0.25;entryY=1;entryDx=0;entryDy=0;fontSize=14;fontColor=#000000;exitX=0.24;exitY=0.033;exitDx=0;exitDy=0;exitPerimeter=0;dashed=1;fillColor=#f0a30a;strokeColor=#BD7000;" edge="1" parent="1" source="_GSDlz-p9VPtujBZK2C7-17" target="_GSDlz-p9VPtujBZK2C7-26">
          <mxGeometry relative="1" as="geometry" />
        </mxCell>
        <mxCell id="_GSDlz-p9VPtujBZK2C7-36" value="Entry" style="rounded=0;whiteSpace=wrap;html=1;fontSize=14;fontColor=#ffffff;fillColor=#1ba1e2;strokeColor=#006EAF;" vertex="1" parent="1">
          <mxGeometry x="530" y="180" width="160" height="40" as="geometry" />
        </mxCell>
        <mxCell id="_GSDlz-p9VPtujBZK2C7-37" style="edgeStyle=none;rounded=0;orthogonalLoop=1;jettySize=auto;html=1;exitX=1;exitY=0.5;exitDx=0;exitDy=0;entryX=0;entryY=0.5;entryDx=0;entryDy=0;fontSize=14;fontColor=#000000;" edge="1" parent="1" source="_GSDlz-p9VPtujBZK2C7-17" target="_GSDlz-p9VPtujBZK2C7-36">
          <mxGeometry relative="1" as="geometry" />
        </mxCell>
        <mxCell id="_GSDlz-p9VPtujBZK2C7-38" value="为什么Entry的key要使用弱引用?&lt;br&gt;如果是强引用，即使tl = null,但key的引用依然指向ThreadLocal对象，所以会有内存泄漏，而使用弱引用则不会。&lt;br&gt;但还是会有内存泄漏存在，ThreadLocal被回收，key的值被回收，key的值变成null,则导致整个value再无法回收，因此会存在内存泄漏" style="shape=note;whiteSpace=wrap;html=1;backgroundOutline=1;darkOpacity=0.05;fontSize=14;fillColor=#fff2cc;strokeColor=#d6b656;gradientColor=#ffd966;align=left;" vertex="1" parent="1">
          <mxGeometry x="530" y="275" width="210" height="210" as="geometry" />
        </mxCell>
      </root>
    </mxGraphModel>
  </diagram>
</mxfile>
